# xmcd
#
# Track frame offsets:
#	150
#	22626
#	39701
#	63274
#	84020
#	108272
#	133232
#	154689
#	171725
#	188919
#	206335
#
# Disc length: 3126 seconds
# Revision: 0
# Processed by: cddbd v1.5.2PL0 Copyright (c) Steve Scherf et al.
# Submitted via: dBpowerAMP V12.0
#
DISCID=880c340b
DTITLE=Jules Boult and The Redeemers - I Have A Boogie To Play - Live
DYEAR=2013
DGENRE=Blues
TTITLE0=I Held My Baby Tight
TTITLE1=I'll Fly Away
TTITLE2=Needed Time
TTITLE3=Mark My Words
TTITLE4=O'Mary Don't You Weep 
TTITLE5=Sitting On Top Of The World
TTITLE6=I Have A Boogie To Play
TTITLE7=Wid' A Smile
TTITLE8=Emma Rose (Alternate Take)
TTITLE9=Junco Partner
TTITLE10=Down By The Riverside
EXTD=
EXTT0=
EXTT1=
EXTT2=
EXTT3=
EXTT4=
EXTT5=
EXTT6=
EXTT7=
EXTT8=
EXTT9=
EXTT10=
PLAYORDER=
